<?xml version="1.0" ?><svg version="1.1" viewBox="0 -0.408812999725342 141.332992553711 141.741805553436" xmlns="http://www.w3.org/2000/svg" xmlns:xlink="http://www.w3.org/1999/xlink">
    <defs>
        <linearGradient id="def0" x1="0.500005" x2="0.500004" y1="1" y2="4.75038E-06">
            <stop offset="0" stop-color="#003399"/>
            <stop offset="1" stop-color="#0066CC"/>
        </linearGradient>
    </defs>
    <g>
        <path d="M17.3333,-0.408813C7.76,-0.408813,0,7.3512,0,16.9245L0,123.591C0,133.165,7.76,140.925,17.3333,140.925L124,140.925C133.573,140.925,141.333,133.165,141.333,123.591L141.333,16.9245C141.333,7.3512,133.573,-0.408813,124,-0.408813L17.3333,-0.408813z" fill="url(#def0)"/>
        <path d="M54.028,141.333L54.028,85.612 44.568,85.612 44.568,69.052 54.028,69.052 54.028,66.248C54.028,57.5347 56.688,47.9187 63.1933,42.0093 68.8067,36.6907 76.6413,34.764 83.1453,34.764 88.1707,34.764 92.0107,35.3547 95.1147,36.2453L94.2307,53.5387C92.3107,52.9493 89.9467,52.504 86.9853,52.504 79.596,52.504 76.4907,58.268 76.4907,65.3573L76.4907,69.052 90.98,69.052 90.98,85.612 76.6413,85.612 76.6413,141.333 54.028,141.333z" fill="#FFFFFF"/>
    </g>
</svg>